PathFileType	3	(X/Y/Z)	D:\minhoCalibration\240510\subject1_KPNP\preferred\preferred08.trc
DataRate	CameraRate	NumFrames	NumMarkers	Units	OrigDataRate	OrigDataStartFrame	OrigNumFrames
200.0	200.0	18	10	mm	200.0	249	196	
Frame#	Time	Left_Ankle_Outer1			Left_Ankle_Inner1			Left_Knee_Outer1			Left_Knee_Inner1			Left_Wrist1			Right_Wrist1			Right_Knee_Inner1			Right_Knee_Outer1			Right_Ankle_Inner1			Right_Ankle_Outer1			
		X1	Y1	Z1	X2	Y2	Z2	X3	Y3	Z3	X4	Y4	Z4	X5	Y5	Z5	X6	Y6	Z6	X7	Y7	Z7	X8	Y8	Z8	X9	Y9	Z9	X10	Y10	Z10	
249	1.235	-469.96094	145.75426	-568.78259	-516.14484	160.21138	-538.90698	-347.93552	578.59955	-482.23126	-454.02872	559.04156	-453.97473	-339.42447	1031.8562	-671.22858	-673.65546	1092.9006	-540.54163	-649.58624	711.44757	-246.61945	-769.60156	757.33392	-267.07565	-722.32184	607.88892	-660.29535	-828.55243	603.01697	-675.66541
250	1.24	-471.34299	147.50349	-569.10754	-515.70972	162.12964	-535.98279	-343.55502	579.43915	-488.42963	-447.44553	560.9389	-453.99057	-340.63275	1032.9226	-680.43091	-667.54462	1099.6083	-532.26727	-629.98438	727.82898	-228.16039	-750.41522	775.46802	-242.31425	-729.08472	628.87079	-636.89117	-838.11554	626.65186	-642.77185
251	1.245	-473.29361	149.15753	-569.54419	-516.32886	164.00864	-534.21112	-339.05881	580.05463	-494.53482	-440.7775	562.10211	-454.24194	-342.10736	1033.9852	-689.61066	-660.86664	1105.9637	-525.02075	-609.62097	744.40643	-210.72549	-730.08759	794.1449	-219.01067	-736.11786	649.38782	-612.41461	-843.20453	649.08917	-615.1701
252	1.25	-475.95972	150.45706	-569.35297	-517.0603	165.64847	-532.31641	-335.35031	580.27344	-500.32108	-434.54263	562.91882	-453.8837	-344.15323	1034.6158	-699.02692	-654.88678	1112.8041	-516.92694	-588.47589	761.24738	-194.87921	-708.41223	813.68378	-197.05013	-743.32391	669.35626	-586.91693	-850.73993	672.97803	-581.87262
253	1.255	-478.43069	151.85472	-569.96252	-518.21838	167.30727	-530.64911	-332.23819	580.23053	-506.08307	-427.61835	563.57684	-454.35602	-347.26059	1035.0709	-707.5722	-648.35541	1119.5074	-509.98706	-566.45239	778.19403	-180.69771	-685.20831	834.44574	-176.32213	-750.54742	688.83386	-560.47314	-856.21796	695.7226	-549.7193
254	1.26	-481.45032	153.13406	-569.51056	-519.85516	168.77711	-528.12482	-329.85355	579.85083	-511.55139	-422.52884	563.52045	-454.32101	-351.50864	1034.8702	-715.70648	-641.27594	1125.1642	-503.8259	-543.99365	795.04315	-169.00906	-660.01434	855.62366	-157.64371	-757.61322	707.81238	-532.90668	-861.00391	718.71521	-516.19421
255	1.265	-484.60706	153.82498	-568.87988	-521.30316	169.57034	-526.05219	-328.32602	579.23767	-516.61597	-417.05725	563.38776	-454.85422	-356.48056	1034.2484	-723.30951	-634.14679	1130.498	-498.20407	-520.97449	811.52942	-158.68077	-633.59088	876.60986	-141.36978	-764.45074	725.76239	-503.38675	-866.30463	741.98773	-478.17242
256	1.27	-487.74405	154.35272	-567.82092	-523.09216	170.16306	-523.70862	-327.90857	578.2113	-521.11987	-412.38516	562.89563	-455.72971	-362.47064	1033.1268	-730.11145	-627.97485	1136.3275	-491.94235	-497.77524	827.52075	-150.45941	-604.97699	898.01605	-127.75883	-771.10852	743.15253	-472.89294	-870.00146	764.34003	-439.80426
257	1.275	-491.44373	154.427	-565.91864	-525.33148	170.73619	-520.97797	-328.17044	577.02362	-524.99683	-409.37637	562.367	-455.46017	-368.89526	1031.6836	-736.39569	-621.28003	1141.391	-487.10608	-474.65833	842.95471	-144.18382	-576.23407	919.43707	-116.25024	-777.45392	759.453	-441.06412	-872.52045	786.56384	-399.46515
258	1.28	-494.66721	154.63373	-564.53687	-527.60687	170.95866	-518.08038	-328.96606	576.0011	-528.23126	-406.49536	561.14014	-458.18924	-375.69943	1029.8563	-741.84766	-614.66614	1146.7134	-482.3143	-451.74399	857.73254	-140.22809	-546.77673	939.92694	-108.11137	-782.69788	775.11615	-406.2724	-873.44812	808.086	-357.85944
259	1.285	-498.49356	154.48878	-562.46582	-530.17139	170.78186	-515.21606	-330.21603	574.84937	-530.64996	-406.74344	561.17633	-455.46857	-382.80188	1027.7235	-746.48975	-607.90405	1151.66	-478.08673	-429.94049	871.38843	-137.04224	-516.83899	959.43817	-102.78843	-787.62927	789.68945	-370.14569	-872.47968	829.56696	-314.35632
260	1.29	-502.36456	154.49026	-560.33069	-533.17755	170.91035	-512.21802	-331.77863	573.82874	-532.13782	-406.80627	560.50568	-455.67133	-390.10568	1025.1605	-750.2663	-600.5426	1156.2944	-473.55026	-408.68784	884.63989	-135.7274	-487.45935	977.81842	-100.16422	-788.25995	806.18848	-328.88434	-868.87079	850.78076	-269.51358
261	1.295	-506.36612	154.24886	-558.13672	-536.44299	170.48354	-509.51297	-333.43665	572.81781	-533.10248	-407.5322	560.00073	-455.70505	-397.46118	1022.256	-753.07599	-594.85297	1161.4189	-470.23273	-389.02545	897.06512	-135.37233	-458.6586	994.81067	-100.64938	-788.66199	821.659	-285.66949	-862.48315	871.78674	-222.79683
262	1.3	-510.51129	153.88185	-555.93823	-540.04633	170.23174	-506.99741	-335.77536	571.87646	-532.55939	-410.07254	559.88092	-453.26852	-404.5632	1019.0984	-755.38348	-589.06171	1166.9214	-467.46149	-370.93564	909.08392	-135.86192	-431.73163	1010.3887	-102.75732	-788.88458	836.56946	-241.48083	-852.86572	892.82477	-173.76019
263	1.305	-515.03735	153.60101	-553.78101	-543.91516	169.74472	-504.58694	-338.23929	571.12036	-531.20428	-411.95309	559.62921	-452.35489	-411.78918	1015.5859	-756.3385	-583.48553	1171.6804	-465.36215	-353.71097	920.37372	-136.97234	-407.30939	1024.5186	-106.62716	-788.79462	850.39044	-195.95718	-839.06	913.51074	-123.74489
264	1.31	-519.62091	153.31313	-551.71167	-547.95947	169.01247	-502.44211	-341.19312	569.84973	-529.33417	-415.50958	558.96613	-449.98172	-418.35333	1012.2499	-757.23816	-577.99487	1176.0125	-463.52835	-337.65582	931.05426	-138.54613	-384.4809	1037.1628	-112.52013	-780.41711	865.53217	-145.03668	-821.25519	934.21985	-72.789032
265	1.315	-524.05682	153.01167	-549.83551	-551.89282	168.52576	-500.41843	-343.82346	569.43457	-526.83063	-417.93362	558.70709	-448.23059	-425.08972	1008.5974	-756.98267	-573.8103	1179.6354	-462.6915	-323.39719	941.41064	-140.67606	-364.8212	1048.2712	-119.12107	-767.55646	880.29633	-91.839867	-798.73315	955.57666	-21.531696
266	1.32	-528.23639	152.5854	-547.94855	-555.97186	167.82437	-498.70151	-346.86948	568.56653	-523.88147	-421.5441	558.32062	-445.60553	-430.84134	1005.6311	-756.30438	-569.73901	1183.3284	-462.19315	-310.68381	950.8927	-142.97026	-348.22369	1058.0201	-126.13403	-749.64252	896.23651	-38.320568	-771.70923	976.64893	29.500269
